<?xml version="1.0" encoding="iso-8859-1"?>
<!-- Generator: Adobe Illustrator 16.0.0, SVG Export Plug-In . SVG Version: 6.00 Build 0)  -->
<!DOCTYPE svg PUBLIC "-//W3C//DTD SVG 1.1//EN" "http://www.w3.org/Graphics/SVG/1.1/DTD/svg11.dtd">
<svg xmlns="http://www.w3.org/2000/svg" xmlns:xlink="http://www.w3.org/1999/xlink" version="1.1" id="Capa_1" x="0px" y="0px" width="512px" height="512px" viewBox="0 0 418.506 418.506" style="enable-background:new 0 0 418.506 418.506;" xml:space="preserve">
<g>
	<g>
		<path d="M289.23,81.047c-22.959,0-41.633,18.676-41.633,41.631c0,22.957,18.674,41.633,41.633,41.633    c22.949,0,41.621-18.676,41.621-41.633C330.854,99.723,312.182,81.047,289.23,81.047z M289.23,135.693    c-7.176,0-13.018-5.84-13.018-13.016c0-7.174,5.842-13.014,13.018-13.014c7.174,0,13.01,5.84,13.01,13.014    C302.24,129.854,296.404,135.693,289.23,135.693z" fill="#006DF0"/>
		<path d="M415.193,158.615C391.971,65.223,308.479,0,212.145,0C96.759,0,2.891,93.867,2.891,209.252    c0,115.387,93.869,209.254,209.254,209.254c69.598,0,134.451-34.463,173.475-92.197c2.223-3.291,2.977-7.356,2.09-11.229    c-0.895-3.869-3.352-7.188-6.789-9.18L280.861,248.13l127.598-73.67C413.986,171.268,416.729,164.807,415.193,158.615z     M245.092,235.738c-4.43,2.557-7.154,7.279-7.154,12.393c0,5.115,2.725,9.838,7.154,12.395l107.652,62.156    c-34.182,42.338-85.684,67.209-140.601,67.209c-99.604,0-180.637-81.035-180.637-180.639c0-99.604,81.033-180.637,180.637-180.637    c79.571,0,148.993,51.545,172.394,126.613L245.092,235.738z" fill="#006DF0"/>
	</g>
</g>
<g>
</g>
<g>
</g>
<g>
</g>
<g>
</g>
<g>
</g>
<g>
</g>
<g>
</g>
<g>
</g>
<g>
</g>
<g>
</g>
<g>
</g>
<g>
</g>
<g>
</g>
<g>
</g>
<g>
</g>
</svg>
